<svg id="图层_1" data-name="图层 1" xmlns="http://www.w3.org/2000/svg" viewBox="0 0 350.28 327.68"><defs><style>.cls-1{fill:red;}.cls-1,.cls-2{stroke:#000;stroke-miterlimit:10;stroke-width:20px;}.cls-2{fill:#1bac4a;}</style></defs><path d="M638.38,284.13c-7.08,11.57-13.46,23.55-20.6,35.08-3.64,5.87-7.48,11.61-11.66,17.11-.76,1,1.06-1.34.28-.36l-.79,1c-.53.67-1.07,1.33-1.61,2-1.08,1.31-2.18,2.6-3.32,3.86-2.25,2.51-4.6,4.93-7.08,7.22-1.36,1.26-2.77,2.49-4.2,3.66-.38.31-.75.61-1.13.9l-.42.34c-.7.55,1.38-1.05.66-.52s-1.54,1.15-2.32,1.71a78.72,78.72,0,0,1-9.81,5.9c-3.51,1.78-4.8,7-2.69,10.26A7.67,7.67,0,0,0,584,375c12.66-6.41,23.36-16.22,32.15-27.26,9-11.3,16.43-23.62,23.61-36.12,3.83-6.66,7.61-13.35,11.62-19.9,2-3.35.85-8.4-2.69-10.26a7.64,7.64,0,0,0-10.26,2.69Z" transform="translate(-440.89 -208)"/><path d="M648.72,282.5a131.44,131.44,0,0,1,15,26.81l-.75-1.79a190.5,190.5,0,0,1,11.4,38.94q1,5.7,1.82,11.44l-.27-2a246.35,246.35,0,0,1,2.1,38.77,7.5,7.5,0,1,0,15,0,253.8,253.8,0,0,0-3.59-48.85,194.78,194.78,0,0,0-14.48-48,129.07,129.07,0,0,0-13.26-22.87,8.14,8.14,0,0,0-4.48-3.44,7.67,7.67,0,0,0-5.78.75c-3.12,2-5.17,6.88-2.69,10.27Z" transform="translate(-440.89 -208)"/><circle class="cls-1" cx="73" cy="192.19" r="63"/><circle class="cls-1" cx="224.77" cy="254.68" r="63"/><path class="cls-2" d="M648,264c8.93,12.87-22.15,25.59-25,29-34.49,14.79-88.84-13.91-94-53C565.32,204.52,625.79,211.57,648,264Z" transform="translate(-440.89 -208)"/><path class="cls-2" d="M780,276.07c-17.89,35.14-78.69,44.12-106.29,18.68-1.55-4.16-26.63-26.5-13.92-35.66C698.17,217,757.55,230.52,780,276.07Z" transform="translate(-440.89 -208)"/></svg>